<?xml version="1.0" standalone="no"?>
<!DOCTYPE svg PUBLIC "-//W3C//DTD SVG 20010904//EN"
 "http://www.w3.org/TR/2001/REC-SVG-20010904/DTD/svg10.dtd">
<svg version="1.0" xmlns="http://www.w3.org/2000/svg"
 width="400.000000pt" height="400.000000pt" viewBox="0 0 400.000000 400.000000"
 preserveAspectRatio="xMidYMid meet">
<metadata>
Created by potrace 1.11, written by Peter Selinger 2001-2013
</metadata>
<g transform="translate(0.000000,400.000000) scale(0.100000,-0.100000)"
fill="#000000" stroke="none">
<path d="M1775 3705 c-209 -29 -438 -109 -644 -226 -131 -74 -135 -77 -187
-114 -307 -222 -502 -439 -654 -729 -271 -521 -233 -1027 108 -1430 82 -97
232 -233 336 -304 141 -97 377 -205 530 -243 45 -11 97 -25 116 -30 19 -5 80
-16 135 -24 55 -8 113 -18 129 -21 l29 -6 -49 -30 c-91 -57 -127 -92 -216
-211 -48 -66 -88 -123 -88 -128 0 -4 -15 -41 -34 -81 -19 -40 -38 -85 -41
-100 -7 -26 -5 -28 23 -28 28 0 31 4 48 58 10 31 20 59 23 62 3 3 7 12 9 20 4
18 46 107 64 135 7 11 23 35 34 53 l22 34 11 -53 c7 -29 17 -111 23 -181 9
-97 15 -128 25 -128 16 0 12 72 -14 250 -20 137 -21 146 -5 142 8 -1 11 2 7 7
-9 16 183 151 215 151 5 0 9 -28 9 -62 0 -96 23 -150 95 -220 l29 -29 -7 -97
c-4 -53 -10 -107 -13 -119 -5 -21 -1 -23 30 -23 34 0 36 2 42 43 5 30 2 55 -9
81 -24 57 -20 59 30 21 56 -43 78 -44 135 -6 24 17 45 28 47 26 2 -2 -2 -20
-8 -42 -6 -21 -10 -56 -8 -78 3 -38 5 -40 41 -43 44 -4 43 -6 26 144 l-10 96
36 34 c54 53 86 125 92 208 3 39 6 72 7 72 6 7 170 -105 168 -115 -1 -7 2 -10
7 -7 5 4 22 -4 37 -17 l27 -23 -13 -70 c-7 -38 -14 -78 -17 -89 -2 -11 -7 -68
-10 -128 -4 -77 -3 -107 6 -107 6 0 11 10 11 23 1 29 9 120 17 177 3 25 7 54
8 65 5 51 18 96 26 88 34 -34 130 -226 144 -288 14 -63 16 -65 46 -65 35 0 35
0 8 81 -57 175 -208 380 -345 466 -24 15 -44 31 -44 34 0 4 44 12 97 19 123
15 343 69 449 110 514 196 895 604 980 1050 19 98 19 291 0 410 -34 208 -145
469 -294 687 -178 261 -440 484 -772 656 -193 100 -296 135 -525 176 -186 34
-365 39 -530 16z m456 -50 c255 -30 461 -102 700 -245 337 -202 575 -449 748
-772 192 -362 232 -752 109 -1068 -92 -237 -271 -452 -518 -621 -132 -91 -359
-195 -520 -238 -146 -40 -406 -81 -507 -81 -44 0 -49 5 -54 60 -7 74 -7 74
140 115 112 31 140 43 248 107 94 56 196 160 240 245 26 49 31 53 63 53 87 0
165 49 215 134 50 85 67 246 34 309 -15 27 -1 20 54 -28 28 -24 53 -42 55 -40
3 2 -1 25 -7 49 -15 63 -41 296 -41 380 0 201 -76 481 -170 630 -22 35 -40 65
-40 68 0 3 30 8 68 12 81 8 210 40 226 56 8 9 1 10 -31 5 -54 -8 -238 52 -471
154 -217 96 -409 166 -512 187 -131 26 -441 16 -570 -19 -165 -45 -299 -106
-385 -174 -80 -63 -203 -195 -272 -290 -97 -136 -151 -297 -173 -513 -19 -199
-54 -326 -102 -377 -40 -43 6 -23 89 39 29 21 54 38 57 38 2 0 7 -24 11 -52 5
-43 2 -63 -16 -103 -18 -40 -23 -68 -22 -135 0 -105 25 -177 85 -245 50 -56
106 -84 169 -85 43 0 46 -2 66 -43 29 -60 107 -155 169 -205 74 -60 223 -134
337 -165 53 -15 103 -27 111 -27 19 0 27 -39 20 -94 l-7 -46 -47 0 c-147 0
-492 68 -655 128 -86 32 -291 134 -346 172 -165 114 -306 247 -399 375 -67 93
-144 250 -176 355 -127 429 53 992 448 1400 173 179 367 319 620 446 265 133
622 189 959 149z m-348 -743 c33 -112 113 -302 164 -386 68 -113 124 -196 132
-196 4 0 7 21 5 48 -2 26 -11 143 -20 260 -9 117 -13 216 -10 220 19 18 186
-180 296 -350 l60 -93 -51 -16 c-50 -16 -119 -64 -127 -87 -2 -7 32 6 75 28
126 63 108 73 201 -112 74 -147 129 -278 116 -278 -3 0 -28 12 -57 27 -69 36
-188 39 -257 7 -73 -33 -127 -96 -144 -166 -8 -33 9 -38 19 -7 11 33 84 108
130 132 58 31 183 31 242 0 117 -63 188 -171 199 -305 l8 -83 27 60 c31 66 31
70 -1 -120 -26 -149 -44 -213 -80 -285 -109 -216 -304 -342 -634 -410 -123
-25 -218 -25 -337 -1 -273 57 -448 151 -559 301 -88 119 -120 213 -164 485
l-7 40 25 -30 25 -30 1 50 c0 69 26 266 45 350 28 123 78 294 84 290 4 -2 8
-39 9 -82 2 -43 10 -109 17 -147 l15 -69 -46 -40 c-50 -44 -84 -103 -84 -144
1 -26 3 -25 25 17 27 54 96 120 154 149 51 27 143 37 197 22 68 -18 165 -104
187 -164 10 -29 15 3 6 37 -14 52 -79 119 -142 147 -65 29 -184 32 -234 6 -18
-9 -34 -17 -37 -17 -7 0 18 74 77 231 75 199 69 190 114 177 21 -5 66 -25 101
-44 67 -38 81 -32 30 12 -40 33 -105 63 -135 64 -13 0 -23 3 -23 8 0 12 145
302 192 382 79 137 133 219 139 212 3 -4 18 -49 32 -100z m918 -971 c10 -41
19 -78 19 -83 0 -4 -16 9 -35 31 -34 37 -35 41 -35 117 l1 79 15 -35 c9 -19
24 -68 35 -109z m-1774 -260 c28 -21 53 -63 53 -90 0 -21 -1 -21 -30 -6 -33
17 -76 20 -85 5 -4 -6 7 -10 25 -10 69 0 87 -27 130 -193 16 -62 32 -123 36
-136 7 -22 5 -23 -27 -16 -84 18 -138 64 -185 157 -43 86 -45 239 -2 293 22
28 43 27 85 -4z m2057 -5 c18 -24 21 -42 21 -129 0 -93 -3 -107 -30 -161 -16
-32 -46 -72 -66 -90 -34 -28 -134 -74 -144 -65 -4 5 60 253 76 292 16 37 46
57 87 57 20 0 31 4 27 10 -9 15 -52 12 -87 -6 l-31 -16 7 33 c7 37 28 64 71
90 36 23 43 21 69 -15z m-921 -977 c6 -66 20 -93 66 -121 l34 -21 -6 -66 c-7
-87 -28 -132 -85 -189 -31 -32 -46 -54 -44 -68 2 -16 -10 -31 -45 -57 -72 -52
-96 -52 -153 -1 -28 26 -39 42 -35 55 4 12 -6 28 -31 51 -57 52 -85 109 -94
191 l-8 71 43 41 c45 42 71 104 60 147 l-6 23 149 0 150 0 5 -56z m-19 -688
c-12 -14 -19 25 -14 74 2 23 4 19 10 -20 4 -27 6 -52 4 -54z m-257 42 c-3 -10
-5 -4 -5 12 0 17 2 24 5 18 2 -7 2 -21 0 -30z"/>
<path d="M1460 1775 c-34 -36 -39 -111 -10 -147 17 -22 30 -28 60 -28 56 0 90
36 90 95 0 89 -85 138 -140 80z"/>
<path d="M2484 1792 c-42 -29 -56 -100 -29 -152 19 -36 75 -51 114 -29 72 41
36 189 -46 189 -15 0 -33 -4 -39 -8z"/>
<path d="M1378 1440 c35 -20 193 -19 240 1 31 13 22 14 -117 14 -138 0 -148
-1 -123 -15z"/>
<path d="M2428 1441 c52 -19 200 -20 234 -1 25 14 15 15 -122 15 -138 0 -146
-1 -112 -14z"/>
<path d="M2010 1421 c0 -11 5 -23 10 -26 6 -4 10 5 10 19 0 14 -4 26 -10 26
-5 0 -10 -9 -10 -19z"/>
<path d="M2630 1348 c0 -11 -11 -20 -27 -24 -16 -3 -36 -8 -46 -11 -11 -3 -20
3 -25 17 -8 21 -8 21 -20 -4 -11 -24 -15 -26 -57 -21 -25 3 -45 2 -45 -3 0
-11 34 -22 71 -22 18 0 28 -6 32 -20 7 -28 27 -25 27 5 0 19 5 25 23 25 12 0
32 3 45 6 18 5 22 2 22 -15 0 -12 6 -21 15 -21 9 0 15 9 15 25 0 14 7 28 15
31 8 4 15 11 15 16 0 6 -7 7 -16 4 -10 -4 -22 1 -30 11 -13 17 -13 17 -14 1z"/>
<path d="M1983 1023 c-12 -2 -26 -10 -32 -16 -8 -10 6 -12 62 -9 89 4 108 9
87 22 -15 10 -76 11 -117 3z"/>
<path d="M1345 89 c-4 -6 -5 -12 -2 -15 2 -3 7 2 10 11 7 17 1 20 -8 4z"/>
<path d="M2008 3 c6 -2 18 -2 25 0 6 3 1 5 -13 5 -14 0 -19 -2 -12 -5z"/>
</g>
</svg>
